<svg width="141" height="144" viewBox="0 0 141 144" fill="none" xmlns="http://www.w3.org/2000/svg">
<path d="M123.582 93.599C120.839 93.5971 118.208 92.509 116.269 90.5736C114.329 88.6383 113.239 86.014 113.237 83.2769V59.0673C113.23 50.8914 110.87 42.8895 106.439 36.0125C102.007 29.1355 95.69 23.6726 88.238 20.2731C87.8529 15.4803 85.6394 11.0177 82.054 7.80522C78.4687 4.59276 73.7846 2.87535 68.9676 3.00705C64.1507 3.13876 59.5679 5.10954 56.1642 8.5131C52.7606 11.9167 50.7954 16.4935 50.6739 21.3001C43.7683 24.9144 37.9839 30.343 33.946 36.9993C29.9081 43.6557 27.7702 51.2866 27.7634 59.0673V83.2769C27.7614 86.014 26.6709 88.6383 24.7312 90.5736C22.7916 92.509 20.1614 93.5971 17.4183 93.599C13.5943 93.599 9.92701 95.1148 7.22304 97.8127C4.51908 100.511 3 104.17 3 107.985C3 111.801 4.51908 115.46 7.22304 118.158C9.92701 120.856 13.5943 122.372 17.4183 122.372H51.8723C52.1302 127.398 54.313 132.134 57.9697 135.6C61.6265 139.067 66.4779 141 71.522 141C76.5661 141 81.4175 139.067 85.0743 135.6C88.731 132.134 90.9138 127.398 91.1717 122.372H123.582C127.406 122.372 131.073 120.856 133.777 118.158C136.481 115.46 138 111.801 138 107.985C138 104.17 136.481 100.511 133.777 97.8127C131.073 95.1148 127.406 93.599 123.582 93.599ZM69.4817 8.13888C72.487 8.14693 75.4072 9.13569 77.7968 10.9543C80.1863 12.773 81.914 15.3217 82.7162 18.2116C73.9764 15.6098 64.6315 15.8669 56.0486 18.9452C56.7163 15.8852 58.4126 13.1449 60.856 11.1793C63.2994 9.21368 66.343 8.14085 69.4817 8.13888ZM71.5183 134.213C68.2785 134.208 65.1588 132.988 62.7791 130.794C60.3993 128.601 58.9337 125.594 58.6734 122.372H84.3632C84.1046 125.595 82.6395 128.602 80.2594 130.796C77.8793 132.99 74.7587 134.21 71.5183 134.213ZM123.582 115.601H17.4183C15.3942 115.601 13.453 114.798 12.0217 113.37C10.5905 111.942 9.78638 110.005 9.78638 107.985C9.78638 105.966 10.5905 104.029 12.0217 102.601C13.453 101.173 15.3942 100.37 17.4183 100.37C21.9601 100.365 26.3141 98.5618 29.5256 95.3574C32.7371 92.153 34.5439 87.8086 34.5497 83.2769V59.0673C34.5497 49.5528 38.3378 40.428 45.0804 33.7003C51.8231 26.9725 60.9681 23.1929 70.5037 23.1929C80.0393 23.1929 89.1843 26.9725 95.9269 33.7003C102.67 40.428 106.458 49.5528 106.458 59.0673V83.2769C106.462 87.8092 108.268 92.1548 111.48 95.3596C114.692 98.5644 119.047 100.367 123.589 100.37C124.591 100.37 125.584 100.567 126.51 100.95C127.436 101.333 128.277 101.894 128.986 102.601C129.694 103.308 130.256 104.147 130.64 105.071C131.024 105.995 131.221 106.985 131.221 107.985C131.221 108.986 131.024 109.976 130.64 110.9C130.256 111.824 129.694 112.663 128.986 113.37C128.277 114.077 127.436 114.638 126.51 115.021C125.584 115.404 124.591 115.601 123.589 115.601H123.582Z" fill="#282625" stroke="#282625" stroke-width="6" stroke-miterlimit="10"/>
<circle cx="70.5" cy="71.5" r="25.5" fill="#FFC814"/>
</svg>
