<svg width="155" height="173" viewBox="0 0 155 173" fill="none" xmlns="http://www.w3.org/2000/svg">
<path d="M155 49.759C154.992 43.3107 152.426 37.1289 147.867 32.5693C143.307 28.0096 137.125 25.4443 130.677 25.4359H113.897C114.617 22.4011 114.64 19.2428 113.966 16.1976C113.292 13.1524 111.937 10.2994 110.003 7.85232C108.069 5.40528 105.606 3.4277 102.799 2.06781C99.9922 0.707923 96.9139 0.000986196 93.7949 0H57.2308C54.1118 0.000986196 51.0335 0.707923 48.2266 2.06781C45.4197 3.4277 42.957 5.40528 41.023 7.85232C39.0891 10.2994 37.7342 13.1524 37.0597 16.1976C36.3852 19.2428 36.4087 22.4011 37.1285 25.4359H24.3231C17.8748 25.4443 11.693 28.0096 7.13337 32.5693C2.57373 37.1289 0.00841266 43.3107 0 49.759V71.5385H19.0769V142.282C19.0769 150.293 22.2592 157.976 27.9238 163.64C33.5884 169.305 41.2712 172.487 49.2821 172.487H105.718C113.729 172.487 121.412 169.305 127.076 163.64C132.741 157.976 135.923 150.293 135.923 142.282V71.5385H155V49.759ZM52.4615 20.6667C52.4615 19.4018 52.964 18.1887 53.8584 17.2943C54.7528 16.3999 55.9659 15.8974 57.2308 15.8974H93.7949C95.0598 15.8974 96.2729 16.3999 97.1673 17.2943C98.0617 18.1887 98.5641 19.4018 98.5641 20.6667C98.5641 21.9315 98.0617 23.1446 97.1673 24.039C96.2729 24.9334 95.0598 25.4359 93.7949 25.4359H57.2308C55.9673 25.4359 54.7554 24.9345 53.8612 24.0418C52.9671 23.1492 52.4636 21.9381 52.4615 20.6746V20.6667ZM120.026 142.282C120.026 146.077 118.518 149.716 115.835 152.399C113.152 155.082 109.513 156.59 105.718 156.59H49.2821C45.4874 156.59 41.8482 155.082 39.165 152.399C36.4818 149.716 34.9744 146.077 34.9744 142.282V71.5385H120.026V142.282ZM139.103 55.641H15.8974V49.759C15.9016 47.5257 16.7907 45.385 18.3699 43.8058C19.9491 42.2266 22.0898 41.3375 24.3231 41.3333H130.677C132.911 41.3354 135.053 42.2238 136.632 43.8035C138.212 45.3831 139.1 47.525 139.103 49.759V55.641Z" fill="#231F20"/>
<path d="M52.9487 144.974C55.0568 144.974 57.0787 144.137 58.5693 142.646C60.06 141.155 60.8974 139.134 60.8974 137.026V86.9486C60.8974 84.8405 60.06 82.8187 58.5693 81.328C57.0787 79.8373 55.0568 78.9999 52.9487 78.9999C50.8406 78.9999 48.8188 79.8373 47.3281 81.328C45.8375 82.8187 45 84.8405 45 86.9486V137.026C45 139.134 45.8375 141.155 47.3281 142.646C48.8188 144.137 50.8406 144.974 52.9487 144.974V144.974Z" fill="#231F20"/>
<path d="M77.8979 144.635C80.0061 144.635 82.0279 143.798 83.5186 142.307C85.0092 140.816 85.8467 138.795 85.8467 136.686V86.6095C85.8467 84.5014 85.0092 82.4796 83.5186 80.989C82.0279 79.4983 80.0061 78.6608 77.8979 78.6608C75.7898 78.6608 73.768 79.4983 72.2774 80.989C70.7867 82.4796 69.9492 84.5014 69.9492 86.6095V136.686C69.9492 138.795 70.7867 140.816 72.2774 142.307C73.768 143.798 75.7898 144.635 77.8979 144.635Z" fill="#231F20"/>
<path d="M102.949 144.974C105.057 144.974 107.079 144.137 108.569 142.646C110.06 141.155 110.897 139.134 110.897 137.026V86.9486C110.897 84.8405 110.06 82.8187 108.569 81.328C107.079 79.8373 105.057 78.9999 102.949 78.9999C100.841 78.9999 98.8188 79.8373 97.3281 81.328C95.8375 82.8187 95 84.8405 95 86.9486V137.026C95 139.134 95.8375 141.155 97.3281 142.646C98.8188 144.137 100.841 144.974 102.949 144.974V144.974Z" fill="#231F20"/>
</svg>
