<svg width="173" height="160" viewBox="0 0 173 160" fill="none" xmlns="http://www.w3.org/2000/svg">
<path d="M86.3076 153.784C86.0152 153.784 85.7257 153.726 85.4559 153.614C85.186 153.501 84.9411 153.336 84.7353 153.129L19.4794 87.881C19.2735 87.6746 19.1102 87.4295 18.999 87.16C18.8877 86.8904 18.8307 86.6016 18.8311 86.31C18.8314 86.0184 18.8893 85.7297 19.0012 85.4604C19.1131 85.1911 19.277 84.9466 19.4835 84.7406C19.69 84.5347 19.935 84.3715 20.2045 84.2602C20.4741 84.149 20.7629 84.0919 21.0545 84.0923C21.3462 84.0927 21.6348 84.1505 21.9041 84.2624C22.1734 84.3744 22.4179 84.5383 22.6239 84.7447L86.3076 148.428L149.991 84.7447C150.412 84.3534 150.968 84.1405 151.543 84.151C152.117 84.1614 152.665 84.3943 153.072 84.8006C153.478 85.2069 153.711 85.755 153.721 86.3295C153.732 86.904 153.519 87.4602 153.128 87.881L87.8798 153.129C87.6741 153.336 87.4292 153.501 87.1593 153.614C86.8894 153.726 86.5999 153.784 86.3076 153.784V153.784Z" fill="white"/>
<path fill-rule="evenodd" clip-rule="evenodd" d="M80.956 157.126L15.7132 91.8912C15.0136 91.1898 14.4591 90.3575 14.0812 89.4419C13.7033 88.5262 13.5095 87.5451 13.5107 86.5544C13.512 85.5638 13.7085 84.5831 14.0887 83.6685C14.469 82.7538 15.0257 81.9229 15.7271 81.2234C16.4286 80.5238 17.2609 79.9693 18.1764 79.5914C19.092 79.2136 20.0731 79.0197 21.0638 79.021C22.0543 79.0223 23.035 79.2186 23.9498 79.599C24.8632 79.9787 25.6929 80.5344 26.3918 81.2342L26.3948 81.2373L86.3099 141.152L146.298 81.1642L146.369 81.0985C147.799 79.7686 149.689 79.0451 151.642 79.0805C153.594 79.116 155.457 79.9074 156.838 81.2883C158.219 82.6691 159.01 84.5318 159.045 86.4844C159.081 88.437 158.358 90.3271 157.028 91.7572L156.962 91.8279L91.6639 157.126C91.6603 157.129 91.6568 157.133 91.6532 157.136C90.9544 157.839 90.1237 158.397 89.2088 158.778C88.2911 159.161 87.307 159.358 86.3132 159.358M146.298 87.4367L149.366 84.3687L89.4462 144.289M80.956 157.126C80.96 157.13 80.964 157.134 80.968 157.138C81.6665 157.84 82.4967 158.397 83.411 158.778C84.3287 159.161 85.3128 159.358 86.3066 159.358" fill="white"/>
<path d="M19.4798 87.8811C10.4126 78.8106 5.31996 66.5097 5.32227 53.6845C5.32457 40.8592 10.4216 28.5602 19.492 19.493C28.5625 10.4258 40.8634 5.33315 53.6887 5.33545C66.5139 5.33775 78.813 10.4348 87.8802 19.5053L84.7193 22.617C80.6416 18.5397 75.8007 15.3056 70.473 13.0992C65.1454 10.8929 59.4353 9.75748 53.6689 9.75786C47.9024 9.75824 42.1925 10.8944 36.8652 13.1015C31.5378 15.3085 26.6974 18.5433 22.6201 22.6211C14.3858 30.8565 9.76026 42.0256 9.76103 53.6715C9.7618 65.3173 14.3888 76.4859 22.6242 84.7202L19.4798 87.8811Z" fill="white"/>
<path fill-rule="evenodd" clip-rule="evenodd" d="M15.7294 15.7285C25.7983 5.66329 39.4531 0.010139 53.69 0.0126962C67.9269 0.0152534 81.5797 5.67332 91.6449 15.7422L95.4369 19.5354L84.6906 30.1147L80.9563 26.3808C77.3728 22.7978 73.1187 19.9557 68.4368 18.0168C63.755 16.0779 58.7371 15.0801 53.6696 15.0804C48.6022 15.0808 43.5844 16.0792 38.9028 18.0188C34.2212 19.9583 29.9675 22.801 26.3845 26.3844C19.1483 33.6216 15.0834 43.4369 15.0841 53.671C15.0848 63.9052 19.1509 73.72 26.3881 80.9562L30.1425 84.7101L19.4893 95.4189L15.7158 91.644C5.65058 81.5752 -0.00255631 67.9204 8.67172e-07 53.6834C0.00255805 39.4465 5.6606 25.7937 15.7294 15.7285Z" fill="white"/>
<path d="M153.087 87.8814L149.951 84.7451C158.189 76.514 162.821 65.3473 162.826 53.7014C162.832 42.0556 158.21 30.8846 149.979 22.6459C141.748 14.4072 130.582 9.77577 118.936 9.7704C107.29 9.76502 96.1189 14.3862 87.8802 22.6172L86.3326 24.1731L83.1963 21.0368L84.744 19.481C89.2336 14.9919 94.5634 11.431 100.429 9.00176C106.295 6.57249 112.582 5.32237 118.931 5.32275C125.28 5.32313 131.566 6.57401 137.432 9.00398C143.297 11.434 148.627 14.9954 153.116 19.485C157.605 23.9747 161.166 29.3045 163.595 35.1703C166.024 41.0361 167.274 47.3229 167.274 53.6718C167.274 60.0207 166.023 66.3073 163.593 72.1728C161.163 78.0383 157.601 83.3677 153.112 87.8568L153.087 87.8814Z" fill="white"/>
<path d="M168.51 74.2099C165.813 80.721 161.859 86.6372 156.875 91.6204L153.087 95.4087L142.422 84.7433L146.189 80.9796C153.429 73.7462 157.499 63.9331 157.503 53.6989C157.508 43.4647 153.447 33.6478 146.214 26.4078C138.981 19.1678 129.167 15.0977 118.933 15.093C108.702 15.0883 98.8873 19.1471 91.6478 26.3769L86.3424 31.7103L75.6787 21.0466L80.9753 15.722L80.9804 15.717C85.9643 10.7337 91.8809 6.78077 98.3925 4.08405C104.904 1.38732 111.883 -0.000421514 118.931 9.60382e-08C125.979 0.000422289 132.958 1.38901 139.469 4.08651C145.98 6.78401 151.896 10.7376 156.88 15.7215C161.863 20.7054 165.816 26.622 168.512 33.1336C171.209 39.6452 172.597 46.6241 172.597 53.672C172.596 60.7199 171.207 67.6987 168.51 74.2099Z" fill="white"/>
</svg>
