<svg width="169" height="163" viewBox="0 0 169 163" fill="none" xmlns="http://www.w3.org/2000/svg">
<path fill-rule="evenodd" clip-rule="evenodd" d="M35.2934 108.754C24.8464 108.754 16.3774 117.223 16.3774 127.67C16.3774 138.117 24.8464 146.586 35.2934 146.586C45.7404 146.586 54.2093 138.117 54.2093 127.67C54.2093 117.223 45.7404 108.754 35.2934 108.754ZM0 127.67C0 108.178 15.8014 92.377 35.2934 92.377C54.7854 92.377 70.5868 108.178 70.5868 127.67C70.5868 147.162 54.7854 162.964 35.2934 162.964C15.8014 162.964 0 147.162 0 127.67Z" fill="#231F20"/>
<path fill-rule="evenodd" clip-rule="evenodd" d="M133.337 16.3774C122.89 16.3774 114.421 24.8464 114.421 35.2934C114.421 45.7404 122.89 54.2093 133.337 54.2093C143.784 54.2093 152.253 45.7404 152.253 35.2934C152.253 24.8464 143.784 16.3774 133.337 16.3774ZM98.0435 35.2934C98.0435 15.8014 113.845 0 133.337 0C152.829 0 168.63 15.8014 168.63 35.2934C168.63 54.7854 152.829 70.5868 133.337 70.5868C113.845 70.5868 98.0435 54.7854 98.0435 35.2934Z" fill="#231F20"/>
<path fill-rule="evenodd" clip-rule="evenodd" d="M49.3965 103.122L108.003 47.9133L119.233 59.8344L60.6263 115.043L49.3965 103.122Z" fill="#231F20"/>
</svg>
