<svg width="182" height="132" viewBox="0 0 182 132" fill="none" xmlns="http://www.w3.org/2000/svg">
<path fill-rule="evenodd" clip-rule="evenodd" d="M179.308 54.3357C176.276 57.6913 171.098 57.9537 167.742 54.9217L122.745 14.2647C119.39 11.2327 119.127 6.05454 122.159 2.69892C125.191 -0.656708 130.369 -0.919082 133.725 2.11289L178.722 42.7699C182.078 45.8019 182.34 50.98 179.308 54.3357Z" fill="#231F20"/>
<path fill-rule="evenodd" clip-rule="evenodd" d="M179.321 43.3702C182.345 46.7331 182.07 51.9106 178.707 54.9345L133.71 95.395C130.347 98.4189 125.17 98.144 122.146 94.7811C119.122 91.4182 119.397 86.2407 122.76 83.2168L167.757 42.7563C171.12 39.7324 176.297 40.0073 179.321 43.3702Z" fill="#231F20"/>
<path fill-rule="evenodd" clip-rule="evenodd" d="M165.879 48.846C165.879 53.3685 162.213 57.0347 157.69 57.0347L31.8705 57.0347C27.3479 57.0347 23.6817 53.3685 23.6817 48.8459C23.6817 44.3234 27.3479 40.6572 31.8705 40.6572L157.69 40.6572C162.213 40.6572 165.879 44.3234 165.879 48.846Z" fill="#231F20"/>
<path fill-rule="evenodd" clip-rule="evenodd" d="M81.4982 110.724C84.416 107.806 86.0552 103.849 86.0552 99.7223L102.433 99.7223C102.433 108.192 99.0679 116.315 93.0788 122.304C87.0896 128.294 78.9665 131.658 70.4966 131.658L31.9359 131.658C23.4659 131.658 15.3429 128.294 9.35372 122.304C3.36454 116.315 -0.000125028 108.192 -0.000124658 99.7223L-0.000123466 72.4702C-0.000123096 64.0002 3.36455 55.8772 9.35372 49.888C15.3429 43.8988 23.466 40.5342 31.9359 40.5342L31.9359 56.9116C27.8095 56.9116 23.8521 58.5508 20.9343 61.4686C18.0165 64.3864 16.3773 68.3438 16.3773 72.4702L16.3773 99.7223C16.3773 103.849 18.0165 107.806 20.9343 110.724C23.8521 113.642 27.8095 115.281 31.9359 115.281L70.4966 115.281C74.623 115.281 78.5804 113.642 81.4982 110.724Z" fill="#231F20"/>
</svg>
