<svg width="152" height="128" viewBox="0 0 152 128" fill="none" xmlns="http://www.w3.org/2000/svg">
<path d="M104.711 46.0675C104.869 45.2098 104.949 44.3394 104.949 43.4672V34.1651C104.944 30.3157 103.413 26.6252 100.691 23.9033C97.9694 21.1814 94.2789 19.6503 90.4295 19.6459H58.3069C54.4575 19.6503 50.767 21.1814 48.0451 23.9033C45.3232 26.6252 43.7921 30.3157 43.7878 34.1651V43.4426C43.7878 44.3148 43.8674 45.1852 44.0256 46.0429C36.7959 46.2078 29.9173 49.1933 24.8593 54.3617C19.8013 59.5301 16.9649 66.4715 16.9561 73.7031V100.116C16.9626 107.455 19.8806 114.491 25.0695 119.68C30.2585 124.869 37.2944 127.787 44.6327 127.793H104.12C111.456 127.782 118.487 124.862 123.673 119.674C128.858 114.485 131.774 107.452 131.78 100.116V73.7277C131.774 66.4955 128.938 59.5529 123.879 54.384C118.821 49.2152 111.941 46.2303 104.711 46.0675V46.0675ZM55.723 34.1651C55.723 33.4798 55.9952 32.8226 56.4798 32.338C56.9644 31.8534 57.6216 31.5812 58.3069 31.5812H90.4131C91.0984 31.5812 91.7557 31.8534 92.2402 32.338C92.7248 32.8226 92.997 33.4798 92.997 34.1651V43.4426C92.9949 44.1272 92.7219 44.7832 92.2378 45.2673C91.7537 45.7514 91.0978 46.0243 90.4131 46.0265H58.3069C57.6223 46.0243 56.9663 45.7514 56.4822 45.2673C55.9981 44.7832 55.7252 44.1272 55.723 43.4426V34.1651ZM119.845 100.092C119.843 104.266 118.184 108.269 115.232 111.22C112.281 114.172 108.278 115.831 104.104 115.833H44.6163C40.4427 115.829 36.4414 114.169 33.4902 111.218C30.5391 108.267 28.8792 104.265 28.8749 100.092V73.7277C28.8727 71.6584 29.2782 69.6089 30.0681 67.6962C30.858 65.7836 32.0169 64.0452 33.4786 62.5805C34.9404 61.1157 36.6763 59.9532 38.5873 59.1593C40.4983 58.3654 42.5469 57.9557 44.6163 57.9535H104.104C108.277 57.9579 112.279 59.6177 115.23 62.5689C118.181 65.52 119.841 69.5214 119.845 73.6949V100.092Z" fill="#231F20"/>
<path fill-rule="evenodd" clip-rule="evenodd" d="M104.949 34.1651C104.944 30.3157 103.413 26.6252 100.691 23.9033C97.9694 21.1814 94.2789 19.6503 90.4295 19.6459H58.3069C54.4575 19.6503 50.767 21.1814 48.0451 23.9033C45.3232 26.6252 43.7921 30.3157 43.7878 34.1651V43.4426C43.7878 44.3148 43.8674 45.1852 44.0256 46.0429C41.6629 46.0968 39.3377 46.4519 37.1012 47.0861C32.4944 48.3923 28.2643 50.8824 24.8593 54.3617C19.8013 59.5301 16.9649 66.4715 16.9561 73.7031V100.116C16.9626 107.455 19.8806 114.491 25.0695 119.68C30.2585 124.869 37.2944 127.787 44.6327 127.793H104.12C111.456 127.782 118.487 124.862 123.673 119.674C128.858 114.485 131.774 107.452 131.78 100.116V73.7277C131.774 66.4955 128.938 59.5529 123.879 54.384C120.474 50.9043 116.243 48.4144 111.636 47.1089C109.399 46.4753 107.074 46.1207 104.711 46.0675C104.869 45.2098 104.949 44.3394 104.949 43.4672V34.1651ZM104.601 50.9593L104.711 46.0675L99.839 45.1686C99.4898 47.0682 98.5721 48.8326 97.1876 50.217C96.9251 50.4796 96.6489 50.7253 96.3608 50.9535H104.111C104.274 50.9537 104.438 50.9556 104.601 50.9593ZM28.8749 73.7277V100.092C28.8792 104.265 30.5391 108.267 33.4902 111.218C36.4414 114.169 40.4427 115.829 44.6163 115.833H104.104C108.278 115.831 112.281 114.172 115.232 111.22C118.184 108.269 119.843 104.266 119.845 100.092V73.6949C119.841 69.5214 118.181 65.52 115.23 62.5689C112.279 59.6177 108.277 57.9579 104.104 57.9535H44.6163C42.5469 57.9557 40.4983 58.3654 38.5873 59.1593C36.6763 59.9532 34.9404 61.1157 33.4786 62.5805C32.0169 64.0452 30.858 65.7836 30.0681 67.6962C29.2782 69.6089 28.8727 71.6584 28.8749 73.7277ZM52.0499 50.9535H52.3593C52.2351 50.8552 52.1132 50.7536 51.9937 50.6488L52.0499 50.9535ZM58.3116 26.6459H90.4248C92.4154 26.649 94.3238 27.4396 95.7334 28.8448C95.7361 28.8476 95.7388 28.8503 95.7416 28.853C97.1508 30.2623 97.9444 32.1723 97.9487 34.1651M55.723 43.4426V34.1651C55.723 33.4798 55.9952 32.8226 56.4798 32.338C56.9644 31.8534 57.6216 31.5812 58.3069 31.5812H90.4131C91.0984 31.5812 91.7557 31.8534 92.2402 32.338C92.7248 32.8226 92.997 33.4798 92.997 34.1651V43.4426C92.9949 44.1272 92.7219 44.7832 92.2378 45.2673C91.7537 45.7514 91.0978 46.0243 90.4131 46.0265H58.3069C57.6223 46.0243 56.9663 45.7514 56.4822 45.2673C55.9981 44.7832 55.7252 44.1272 55.723 43.4426Z" fill="black"/>
<path d="M74.3588 110.584C69.6778 110.584 65.1021 109.195 61.2101 106.595C57.3182 103.994 54.2849 100.297 52.494 95.9726C50.7031 91.6478 50.2349 86.8891 51.1487 82.2982C52.0625 77.7074 54.3172 73.4906 57.6277 70.1812C60.9382 66.8719 65.1557 64.6186 69.7469 63.7064C74.3381 62.7942 79.0966 63.264 83.4208 65.0565C87.7449 66.8489 91.4404 69.8834 94.0398 73.7763C96.6392 77.6691 98.0258 82.2454 98.0242 86.9263C98.0155 93.1994 95.5191 99.2129 91.0826 103.648C86.6462 108.083 80.6318 110.577 74.3588 110.584V110.584ZM74.3588 75.1797C72.0388 75.1797 69.7709 75.8677 67.8418 77.1566C65.9128 78.4456 64.4093 80.2776 63.5215 82.421C62.6337 84.5644 62.4014 86.9229 62.854 89.1983C63.3066 91.4738 64.4238 93.5639 66.0643 95.2044C67.7048 96.8449 69.7949 97.9621 72.0703 98.4147C74.3457 98.8673 76.7043 98.635 78.8477 97.7472C80.9911 96.8593 82.8231 95.3559 84.112 93.4268C85.401 91.4978 86.0889 89.2299 86.0889 86.9099C86.0867 83.7995 84.8502 80.8172 82.6508 78.6178C80.4515 76.4185 77.4691 75.1819 74.3588 75.1797V75.1797Z" fill="#231F20"/>
<path fill-rule="evenodd" clip-rule="evenodd" d="M74.3588 110.584C80.6318 110.577 86.6462 108.083 91.0826 103.648C95.5191 99.2129 98.0155 93.1994 98.0242 86.9263C98.0258 82.2454 96.6392 77.6691 94.0398 73.7763C91.4404 69.8834 87.7449 66.8489 83.4208 65.0565C79.0966 63.264 74.3381 62.7942 69.7469 63.7064C65.1557 64.6186 60.9382 66.8719 57.6277 70.1812C54.3172 73.4906 52.0625 77.7074 51.1487 82.2982C50.2349 86.8891 50.7031 91.6478 52.494 95.9726C54.2849 100.297 57.3182 103.994 61.2101 106.595C65.1021 109.195 69.6778 110.584 74.3588 110.584ZM74.3622 70.2527L74.3588 75.1784V70.2527C74.3599 70.2527 74.3611 70.2527 74.3622 70.2527ZM86.0889 86.9099C86.0889 89.2299 85.401 91.4978 84.112 93.4268C82.8231 95.3559 80.9911 96.8593 78.8477 97.7472C76.7043 98.635 74.3457 98.8673 72.0703 98.4147C69.7949 97.9621 67.7048 96.8449 66.0643 95.2044C64.4238 93.5639 63.3066 91.4738 62.854 89.1983C62.4014 86.9229 62.6337 84.5644 63.5215 82.421C64.4093 80.2776 65.9128 78.4456 67.8418 77.1566C69.7709 75.8677 72.0388 75.1797 74.3588 75.1797C77.4691 75.1819 80.4515 76.4185 82.6508 78.6178C84.8502 80.8172 86.0867 83.7995 86.0889 86.9099Z" fill="black"/>
<path d="M5.96351 41.7693C4.38188 41.7693 2.86505 41.141 1.74667 40.0226C0.628297 38.9043 0 37.3874 0 35.8058V0.000106812H35.8057C37.3501 0.0573764 38.8122 0.711172 39.8846 1.82406C40.957 2.93694 41.5561 4.42224 41.5561 5.96772C41.5561 7.5132 40.957 8.99849 39.8846 10.1114C38.8122 11.2243 37.3501 11.8781 35.8057 11.9353H11.9352V35.8058C11.9331 37.3882 11.3029 38.905 10.1833 40.0231C9.06358 41.1413 7.54588 41.7693 5.96351 41.7693Z" fill="#231F20"/>
<path fill-rule="evenodd" clip-rule="evenodd" d="M11.9352 11.9353H35.8057C37.3501 11.8781 38.8122 11.2243 39.8846 10.1114C40.957 8.9985 41.5561 7.5132 41.5561 5.96772C41.5561 4.42224 40.957 2.93694 39.8846 1.82406C38.8122 0.711172 37.3501 0.0573764 35.8057 0.000106812H0V35.8058C0 37.3874 0.628297 38.9043 1.74667 40.0226C2.86505 41.141 4.38188 41.7693 5.96351 41.7693C7.54589 41.7693 9.06358 41.1413 10.1833 40.0231C11.3029 38.905 11.9331 37.3882 11.9352 35.8058V11.9353Z" fill="black"/>
<path d="M146.036 41.7692C144.454 41.7692 142.936 41.1412 141.816 40.023C140.697 38.9049 140.066 37.3881 140.064 35.8057V11.9352H116.194C114.649 11.878 113.187 11.2242 112.115 10.1113C111.043 8.99839 110.443 7.5131 110.443 5.96761C110.443 4.42213 111.043 2.93684 112.115 1.82395C113.187 0.711065 114.649 0.0572696 116.194 0H151.999V35.8057C151.999 37.3873 151.371 38.9042 150.253 40.0225C149.134 41.1409 147.618 41.7692 146.036 41.7692V41.7692Z" fill="#231F20"/>
<path fill-rule="evenodd" clip-rule="evenodd" d="M140.064 11.9352V35.8057C140.066 37.3881 140.697 38.9049 141.816 40.023C142.936 41.1412 144.454 41.7692 146.036 41.7692C147.618 41.7692 149.134 41.1409 150.253 40.0225C151.371 38.9042 151.999 37.3873 151.999 35.8057V0H116.194C114.649 0.0572696 113.187 0.711065 112.115 1.82395C111.043 2.93684 110.443 4.42213 110.443 5.96761C110.443 7.5131 111.043 8.99839 112.115 10.1113C113.187 11.2242 114.649 11.878 116.194 11.9352H140.064Z" fill="black"/>
</svg>
