<svg width="176" height="126" viewBox="0 0 176 126" fill="none" xmlns="http://www.w3.org/2000/svg">
<path fill-rule="evenodd" clip-rule="evenodd" d="M1.85406 64.6774C4.71978 61.1788 9.87914 60.6657 13.3778 63.5314L71.7225 111.321C75.2211 114.186 75.7343 119.346 72.8685 122.845C70.0028 126.343 64.8434 126.856 61.3448 123.991L3.00012 76.2012C-0.498552 73.3355 -1.01166 68.1761 1.85406 64.6774Z" fill="#231F20"/>
<path fill-rule="evenodd" clip-rule="evenodd" d="M173.212 2.17375C176.534 5.24252 176.739 10.4233 173.671 13.7453L72.548 123.212C69.4792 126.534 64.2985 126.739 60.9765 123.671C57.6545 120.602 57.4492 115.421 60.518 112.099L161.641 2.63225C164.709 -0.689746 169.89 -0.895026 173.212 2.17375Z" fill="#231F20"/>
</svg>
