<svg width="182" height="151" viewBox="0 0 182 151" fill="none" xmlns="http://www.w3.org/2000/svg">
<path fill-rule="evenodd" clip-rule="evenodd" d="M32.7631 101.548C23.7135 101.548 16.3774 108.884 16.3774 117.934C16.3774 126.984 23.7135 134.32 32.7631 134.32H148.609C157.659 134.32 164.995 126.984 164.995 117.934C164.995 108.884 157.659 101.548 148.609 101.548H32.7631ZM0 117.934C0 99.8395 14.6685 85.1709 32.7631 85.1709H148.609C166.704 85.1709 181.372 99.8395 181.372 117.934C181.372 136.029 166.704 150.697 148.609 150.697H32.7631C14.6685 150.697 0 136.029 0 117.934Z" fill="#231F20"/>
<path fill-rule="evenodd" clip-rule="evenodd" d="M32.7631 16.3774C23.7135 16.3774 16.3774 23.7135 16.3774 32.7631C16.3774 41.8126 23.7135 49.1487 32.7631 49.1487H148.609C157.659 49.1487 164.995 41.8126 164.995 32.7631C164.995 23.7135 157.659 16.3774 148.609 16.3774H32.7631ZM0 32.7631C0 14.6685 14.6685 0 32.7631 0H148.609C166.704 0 181.372 14.6685 181.372 32.7631C181.372 50.8576 166.704 65.5262 148.609 65.5262H32.7631C14.6685 65.5262 0 50.8576 0 32.7631Z" fill="#231F20"/>
</svg>
