<svg width="49" height="159" viewBox="0 0 49 159" fill="none" xmlns="http://www.w3.org/2000/svg">
<path fill-rule="evenodd" clip-rule="evenodd" d="M25.4751 16.3774C21.5722 16.3774 18.4082 19.5413 18.4082 23.4443C18.4082 27.3472 21.5721 30.5111 25.4751 30.5111C29.378 30.5111 32.5419 27.3472 32.5419 23.4443C32.5419 19.5413 29.378 16.3774 25.4751 16.3774ZM2.03076 23.4443C2.03076 10.4963 12.5271 -6.10352e-05 25.4751 -6.10352e-05C38.423 -6.10352e-05 48.9194 10.4963 48.9194 23.4443C48.9194 36.3922 38.423 46.8886 25.4751 46.8886C12.5271 46.8886 2.03076 36.3922 2.03076 23.4443Z" fill="#231F20"/>
<path fill-rule="evenodd" clip-rule="evenodd" d="M23.4443 72.0116C19.5414 72.0116 16.3774 75.1756 16.3774 79.0785C16.3774 82.9814 19.5414 86.1453 23.4443 86.1453C27.3472 86.1453 30.5112 82.9814 30.5112 79.0785C30.5112 75.1756 27.3473 72.0116 23.4443 72.0116ZM0 79.0785C0 66.1305 10.4964 55.6342 23.4443 55.6342C36.3923 55.6342 46.8886 66.1305 46.8886 79.0785C46.8886 92.0264 36.3923 102.523 23.4443 102.523C10.4964 102.523 0 92.0264 0 79.0785Z" fill="#231F20"/>
<path fill-rule="evenodd" clip-rule="evenodd" d="M23.4443 127.654C19.5414 127.654 16.3774 130.818 16.3774 134.721C16.3774 138.624 19.5414 141.788 23.4443 141.788C27.3472 141.788 30.5112 138.624 30.5112 134.721C30.5112 130.818 27.3473 127.654 23.4443 127.654ZM0 134.721C0 121.773 10.4964 111.277 23.4443 111.277C36.3923 111.277 46.8886 121.773 46.8886 134.721C46.8886 147.669 36.3923 158.165 23.4443 158.165C10.4964 158.165 0 147.669 0 134.721Z" fill="#231F20"/>
</svg>
